<svg aria-hidden="true" style="position: absolute; width: 0; height: 0; overflow: hidden;" version="1.1"
    xmlns="http://www.w3.org/2000/svg" xmlns:xlink="http://www.w3.org/1999/xlink">
    <defs>
        <symbol id="close" viewBox="0 0 32 32">
            <path
                d="M32 3.223l-3.223-3.223-12.777 12.777-12.777-12.777-3.223 3.223 12.777 12.777-12.777 12.777 3.223 3.223 12.777-12.777 12.777 12.777 3.223-3.223-12.777-12.777 12.777-12.777z">
            </path>
        </symbol>
        <symbol id="antenna1" viewBox="0 0 32 32">
            <path fill="var(--color1, #212121)"
                d="M30.773 22.098l-8.443-8.505.937-4.615c.225.09.485.144.758.146h.007c1.192.014 2.17-.941 2.184-2.133s-.941-2.17-2.133-2.184c-1.192-.014-2.17.941-2.184 2.133v.025c0 .26.046.508.13.739l-.005-.015-4.96.605L8.973.161a.53.53 0 00-.376-.16.531.531 0 00-.373.155L6.712 1.66a.5335.5335 0 000 .754l.814.826c-3.153 5.798-2.129 12.978 2.519 17.663.043.041.092.074.146.098a2.986 2.986 0 00-.052.546v6.188h-6.4c-1.472.002-2.665 1.195-2.667 2.667v1.067c0 .295.239.533.533.533h24.533c.295 0 .533-.239.533-.533v-1.067c-.002-1.472-1.195-2.665-2.667-2.667h-6.4v-2.742c1.003.21 2.024.317 3.049.32 2.58-.003 5.005-.663 7.117-1.822l-.077.039.818.823a.534.534 0 00.377.16.531.531 0 00.373-.155l1.512-1.504a.5335.5335 0 000-.754zM23.28 6.233c.418-.415 1.093-.414 1.508.004s.414 1.093-.004 1.508c-.193.192-.459.31-.752.31h-.003c-.589-.003-1.064-.483-1.061-1.072.002-.294.122-.559.314-.751h-.002zm-1.256 3.505l-.598 2.946-1.175-1.182 1.774-1.763zm-.606-.902l-1.92 1.909-1.485-1.493 3.405-.415zM24.004 28.8c.884 0 1.6.716 1.6 1.6v.533H2.137V30.4c0-.884.716-1.6 1.6-1.6h20.267zm-7.467-2.133v1.067h-5.333v-1.067h5.333zM11.204 25.6v-4.053c0-1.294 1.196-2.347 2.667-2.347s2.667 1.053 2.667 2.347V25.6h-5.333zm6.4-1.696v-2.357c0-1.882-1.675-3.413-3.733-3.413h-.058c-1.353 0-2.54.707-3.213 1.771l-.009.016C6.533 15.647 5.62 9.276 8.312 4.034l18.602 18.708c-1.823.947-3.98 1.502-6.266 1.502-1.079 0-2.128-.124-3.136-.357l.093.018zm11.289-.684L7.836 2.039l.755-.752 7.935 7.98c.004 0 .006.007.01.01l13.115 13.191-.757.752z" />
            <path fill="var(--color2, #2196f3)"
                d="M13.876 20.267h-.005c-.884-.001-1.601.714-1.602 1.598s.714 1.601 1.598 1.602h.005c.884.001 1.601-.714 1.602-1.598s-.714-1.601-1.598-1.602zm.373 1.978a.5297.5297 0 01-.376.155h-.002a.5328.5328 0 01-.53-.536.5344.5344 0 01.53-.531c.295.002.532.241.531.536a.5333.5333 0 01-.157.375h.005z" />
        </symbol>
        <symbol id="astronaut" viewBox="0 0 32 32">
            <path fill="var(--color2, #2196f3)"
                d="M31.974 4.524c-.064-.191-.227-.332-.427-.362h-.003l-1.91-.278-.855-1.731c-.179-.365-.777-.365-.956 0l-.855 1.731-1.91.278a.5352.5352 0 00-.43.359l-.001.004a.5342.5342 0 00.135.547l1.383 1.348-.326 1.903c-.034.2.048.402.212.522.087.064.195.102.313.102.091 0 .177-.023.252-.063l-.003.001 1.709-.899 1.709.899c.078.041.164.061.249.061.11 0 .221-.034.314-.102.134-.098.22-.254.22-.431 0-.032-.003-.063-.008-.094v.003l-.326-1.903 1.383-1.348a.5348.5348 0 00.134-.55l.001.004zm-2.463 1.327a.5331.5331 0 00-.161.382c0 .032.003.063.008.094v-.003l.191 1.114-1-.526a.5203.5203 0 00-.248-.061H28.3c-.085 0-.17.02-.249.061l-1.001.526.191-1.114a.5021.5021 0 00.008-.09c0-.15-.062-.285-.161-.382l-.81-.789 1.119-.163a.5335.5335 0 00.4-.289l.001-.003.5-1.013.5 1.013c.078.157.228.267.402.292l1.119.163-.809.789zm-3.377 14.671h-1.067v1.067h1.067v-1.067zm0 2.134h-1.067v1.067h1.067v-1.067zm1.066-1.067h-1.067v1.067H27.2v-1.067zm-2.133 0H24v1.067h1.067v-1.067zm-2.667 4.8h-1.067v1.067H22.4v-1.067zm0 2.133h-1.067v1.067H22.4v-1.067zm1.067-1.066H22.4v1.067h1.067v-1.067zm-2.134 0h-1.067v1.067h1.067v-1.067zM16 24.256h-1.067v1.067H16v-1.067zm0 2.133h-1.067v1.067H16v-1.067zm1.067-1.067H16v1.067h1.067v-1.067zm-2.134 0h-1.067v1.067h1.067v-1.067zm-9.066-19.2H4.8v1.067h1.067V6.122zm0 2.133H4.8v1.067h1.067V8.255zm1.066-1.066H5.866v1.067h1.067V7.189zm-2.133 0H3.733v1.067H4.8V7.189z" />
            <path fill="var(--color1, #212121)"
                d="M24.715 14.159c-.287-.388-.709-.637-1.188-.705-.481-.068-.956.058-1.34.352l-1.252.96-1.898 1.417-1.358-.541c2.421-1.086 4.114-3.508 4.114-6.32 0-3.823-3.123-6.933-6.961-6.933s-6.961 3.11-6.961 6.933c0 1.386.414 2.674 1.12 3.758l-2.769-.024c-.009 0-.015.004-.023.005a.5547.5547 0 00-.159.032l.004-.001c-.013.005-.026.008-.038.013-.006.003-.013.003-.019.006l-3.233 1.596c-.001 0-.001 0-.001.001l-1.893.911a.4288.4288 0 00-.064.036l.001-.001c-.755.502-1.012 1.489-.598 2.295.22.429.595.745 1.056.889.161.052.347.082.539.083.29 0 .577-.071.839-.211l1.388-.738 2.264-1.169 1.357-.008L2.2 22.211c-.001.001-.001.001-.002.001L.859 23.545c-.316.315-.49.732-.49 1.178s.174.863.49 1.179c.325.323.752.485 1.179.485s.854-.162 1.18-.485l1.314-1.309 1.741-1.3.901.897-1.762 1.754c0 .001-.001.001-.002.001l-1.339 1.333c-.316.315-.49.732-.49 1.178s.174.863.49 1.179c.325.323.753.485 1.18.485s.855-.162 1.18-.485l3.482-3.467c.001-.001.001-.001.001-.002l1.01-1-.004-.004c.006-.006.015-.009.022-.015l5.166-5.658 3.471.494c.025.004.05.005.075.005.065 0 .127-.015.187-.038.018-.006.033-.015.05-.023.019-.01.039-.015.058-.027l3.213-2.133c.012-.008.018-.021.029-.029.013-.01.029-.014.041-.026l1.271-1.191c.662-.62.753-1.635.212-2.362zM2.13 17.77a.714.714 0 01-.558.052.7167.7167 0 01-.427-.358.714.714 0 01.214-.902l1.314-.632.449 1.313-.992.527zm3.498-1.828l-1.548.8-.439-1.283 2.027-1.001-.04 1.484zm15.099-6.62c0 .918-.219 1.785-.599 2.559l-4.181-1.899c-.044-.573-.341-1.075-.788-1.388l1.464-4.86c2.378.756 4.105 2.974 4.105 5.588zm-11.789 0c0-3.235 2.644-5.867 5.894-5.867.253 0 .5.021.745.052l-1.432 4.754c-.019-.001-.037-.006-.057-.006-1.033 0-1.873.837-1.873 1.867s.84 1.867 1.873 1.867c.694 0 1.294-.383 1.618-.945l3.862 1.755c-1.075 1.446-2.795 2.39-4.737 2.39-3.25 0-5.894-2.632-5.894-5.867zm5.956.8c0 .441-.362.8-.806.8s-.806-.359-.806-.8c0-.441.362-.8.806-.8s.806.359.806.8zM2.465 25.146c-.236.234-.619.234-.854.001-.114-.114-.176-.263-.176-.423s.062-.309.176-.421l.962-.959.851.848-.959.955zm3.214 3.734c-.236.234-.619.235-.855.001-.114-.114-.176-.263-.176-.423s.062-.309.176-.421l.963-.959.852.848-.96.955zm3.481-3.469c-.001 0-.001 0-.002.001l-1.765 1.76-.852-.848 1.763-1.756c.001-.001.001-.001.002-.001.04-.04.065-.088.09-.135.007-.014.02-.026.026-.04.017-.041.019-.085.026-.129.003-.025.014-.047.014-.073 0-.036-.013-.07-.02-.106-.006-.032-.006-.065-.019-.095-.02-.05-.055-.094-.091-.138-.01-.012-.014-.027-.025-.038h-.001c-.001 0-.001-.002-.001-.002l-1.607-1.6c-.017-.017-.039-.024-.058-.038a.5067.5067 0 00-.087-.058c-.03-.015-.061-.024-.093-.033a.5073.5073 0 00-.103-.02.5002.5002 0 00-.095.005.5307.5307 0 00-.104.02c-.034.011-.063.027-.094.045-.02.011-.042.015-.061.029L4.23 23.485l-.901-.897 2.399-2.386 4.361 4.289-.928.919zm6.819-7.017c-.015-.002-.03.004-.045.003-.008 0-.017-.001-.026-.001-.031 0-.062.003-.092.008h.003a.5364.5364 0 00-.088.021c-.034.012-.065.028-.097.047s-.059.039-.084.062c-.013.011-.028.017-.04.029l-4.698 5.146-4.328-4.257 2.833-2.818c.209-.208.21-.546.002-.755a.5314.5314 0 00-.381-.156v-.001l-2.219.013.028-1.607 3.104.027c1.265 1.294 3.029 2.101 4.981 2.101.437 0 .864-.045 1.279-.123.04.032.079.065.13.085l2.41.96.152.758.178.885-3.003-.427zm4.041.178l-.313-1.558 1.446-1.08.947 1.257-2.08 1.381zm3.754-2.831l-.838.785-.931-1.236.831-.637c.155-.119.351-.168.543-.143.193.027.364.128.48.284.217.292.18.699-.085.947z" />
            <path fill="var(--color1, #212121)"
                d="M13.602 18.544l-2.143-2.133c-.207-.207-.545-.207-.753 0l-2.142 2.133a.532.532 0 00-.157.378c0 .142.056.278.157.378l2.142 2.133c.104.103.241.155.377.155s.273-.052.376-.155l2.143-2.133a.532.532 0 00.157-.378c0-.142-.057-.278-.157-.378zm-2.519 1.759l-1.387-1.381 1.387-1.381 1.387 1.381-1.387 1.381zm6.081-15.232l-.258 1.036c.071.018 1.738.452 1.738 2.149h1.067c0-2.017-1.666-2.965-2.547-3.185zm2.547 4.251h-1.067v1.067h1.067V9.322z" />
        </symbol>
        <symbol id="clock" viewBox="0 0 32 32">
            <path fill="var(--color1, #212121)"
                d="M31.297 15.301C31.295 6.849 24.442-.002 15.989 0S.686 6.855.688 15.308c.001 6.658 4.307 12.551 10.649 14.576.061.019.124.029.187.029.126 0 .245-.035.346-.095l-.003.002a.639.639 0 00.282-.352l.001-.005 3.865-12.25c1.057-.005 1.909-.866 1.903-1.923s-.866-1.909-1.923-1.903c-.299.001-.581.072-.831.196l.011-.005-5.106-5.107a.6372.6372 0 00-.902.016.637.637 0 000 .886l5.103 5.109c-.392.799-.168 1.764.536 2.309l-3.683 11.673C3.845 25.783.119 17.71 2.8 10.432S13.554-.572 20.832 2.109c7.278 2.681 11.004 10.754 8.324 18.032-1.345 3.581-4.003 6.406-7.374 7.938l-.088.036-.398-1.874a.638.638 0 00-.756-.492.644.644 0 00-.293.149l.001-.001-3.837 3.426a.6366.6366 0 00-.052.9c.076.085.174.149.283.184l4.899 1.563c.335.108.694-.077.802-.412a.6375.6375 0 00.031-.195c0-.047-.005-.092-.015-.136l.001.004-.391-1.839c5.664-2.388 9.342-7.942 9.329-14.089zm-15.305-.637c.352 0 .638.286.638.638s-.286.638-.638.638c-.352 0-.638-.285-.638-.638s.285-.638.638-.638zm2.101 14.864l2.184-1.948.603 2.84-2.787-.892z" />
            <path fill="var(--color2, #2196f3)"
                d="M15.354 3.185V4.46c0 .352.285.638.638.638s.638-.285.638-.638V3.185c0-.352-.286-.638-.638-.638s-.638.286-.638.638zM3.876 14.664c-.352 0-.638.286-.638.638s.285.638.638.638h1.275c.352 0 .638-.285.638-.638s-.285-.638-.638-.638H3.876zm24.232 1.275c.352 0 .638-.285.638-.638s-.285-.638-.638-.638h-1.275c-.352 0-.638.286-.638.638s.286.638.638.638h1.275z" />
        </symbol>
        <symbol id="diagram" viewBox="0 0 32 32">
            <path fill="var(--color2, #2196f3)"
                d="M14.926 14.965h1.066v4.798h-1.066v-4.797zm4.264 2.132h1.066v2.665H19.19v-2.665zm-8.529 1.599h1.066v1.066h-1.066v-1.066zm-3.198-.533h1.066v1.599H7.463v-1.599z" />
            <path fill="var(--color1, #212121)"
                d="M1.599 28.291h25.587c.883 0 1.599-.716 1.599-1.599V24.56c0-.883-.716-1.599-1.599-1.599h-.533V9.668L29.681 6.8c.703.346 1.553.136 2.013-.499s.396-1.508-.152-2.068-1.42-.644-2.065-.198a1.609 1.609 0 00-.542 2.002L26.654 8.2V6.97c0-.883-.716-1.599-1.599-1.599H3.733c-.883 0-1.599.716-1.599 1.599v15.992h-.533c-.883 0-1.599.716-1.599 1.599v2.132c0 .883.716 1.599 1.599 1.599zM30.384 4.837c.294 0 .533.239.533.533s-.239.533-.533.533c-.294 0-.533-.239-.533-.533s.239-.533.533-.533zM3.198 6.969c0-.294.239-.533.533-.533h21.322c.294 0 .533.239.533.533v2.239l-1.066 1.013V8.035c0-.294-.239-.533-.533-.533H4.797c-.294 0-.533.239-.533.533v13.326c0 .294.239.533.533.533h19.19c.294 0 .533-.239.533-.533v-9.674l1.066-1.01v12.284H3.198V6.969zm4.798 6.93c-.721-.002-1.354.478-1.546 1.174s.105 1.433.725 1.801c.62.368 1.41.276 1.928-.226l1.853.93a.5341.5341 0 00.636-.122v-.001l3.939-4.431 3.872 2.901a.5355.5355 0 00.687-.04l3.365-3.188v8.131H5.331V8.568h18.124v2.66L19.684 14.8l-3.904-2.927a.5332.5332 0 00-.718.072l-3.993 4.493-1.493-.746c.01-.056.017-.123.02-.19v-.003c0-.883-.716-1.599-1.599-1.599zm.533 1.599c0 .294-.239.533-.533.533s-.533-.239-.533-.533c0-.294.239-.533.533-.533s.533.239.533.533zm3.198 8.528h5.331v.533c0 .294-.239.533-.533.533h-4.264a.5335.5335 0 01-.533-.533v-.533zm-10.661.534c0-.294.239-.533.533-.533h9.062v.533c0 .883.716 1.599 1.599 1.599h4.264c.883 0 1.599-.716 1.599-1.599v-.533h9.062c.294 0 .533.239.533.533v2.132c0 .294-.239.533-.533.533H1.598a.5335.5335 0 01-.533-.533V24.56z" />
        </symbol>
        <symbol id="feicbook" viewBox="0 0 18 32">
            <path
                d="M13.329 5.313h2.921V.225C15.746.156 14.013 0 11.994 0 7.782 0 4.897 2.649 4.897 7.519V12H.249v5.688h4.648V32h5.699V17.689h4.46l.708-5.688h-5.169V8.082c.001-1.644.444-2.769 2.735-2.769z" />
        </symbol>
        <symbol id="instagram" viewBox="0 0 32 32">
            <path
                d="M31.969 9.408c-.075-1.7-.35-2.869-.744-3.882-.406-1.075-1.031-2.038-1.85-2.838A7.8895 7.8895 0 0026.597.862l-.054-.018C25.524.45 24.361.175 22.661.1 20.948.019 20.404 0 16.06 0s-4.888.019-6.595.094c-1.7.075-2.869.35-3.882.744-1.076.406-2.038 1.031-2.838 1.85A7.8895 7.8895 0 00.919 5.466l-.018.054C.507 6.539.232 7.701.157 9.402c-.081 1.713-.1 2.257-.1 6.602s.019 4.888.094 6.595c.075 1.7.35 2.869.744 3.882.427 1.11 1.056 2.057 1.849 2.837l.001.001c.78.792 1.724 1.419 2.778 1.826l.054.018c1.019.394 2.181.669 3.882.744 1.706.075 2.25.094 6.595.094s4.888-.019 6.595-.094c1.7-.075 2.869-.35 3.882-.744 2.157-.85 3.832-2.525 4.663-4.627l.019-.055c.394-1.019.669-2.182.744-3.882.075-1.707.094-2.251.094-6.595s-.006-4.888-.081-6.595zm-2.882 13.065c-.069 1.563-.331 2.407-.55 2.969-.551 1.4-1.638 2.487-3.002 3.026l-.036.013c-.563.219-1.413.481-2.969.55-1.688.075-2.194.094-6.464.094s-4.782-.019-6.464-.094c-1.563-.069-2.407-.331-2.969-.55-.694-.256-1.325-.663-1.838-1.194a4.9797 4.9797 0 01-1.183-1.804l-.011-.034c-.219-.563-.481-1.413-.55-2.969-.075-1.688-.094-2.194-.094-6.464s.019-4.782.094-6.464c.069-1.563.331-2.407.55-2.969.256-.694.663-1.325 1.2-1.838a4.9797 4.9797 0 011.804-1.183l.034-.011c.563-.219 1.413-.481 2.969-.55 1.688-.075 2.194-.094 6.464-.094 4.276 0 4.782.019 6.464.094 1.563.069 2.407.331 2.969.55.694.256 1.325.662 1.838 1.194.517.504.923 1.118 1.183 1.804l.011.034c.219.563.481 1.413.55 2.969.075 1.688.094 2.194.094 6.464s-.019 4.77-.094 6.458z" />
            <path
                d="M16.059 7.783c-4.538 0-8.22 3.682-8.22 8.22s3.682 8.22 8.22 8.22 8.22-3.682 8.22-8.22-3.682-8.22-8.22-8.22zm0 13.552c-2.944 0-5.332-2.388-5.332-5.332s2.388-5.332 5.332-5.332 5.332 2.388 5.332 5.332-2.388 5.332-5.332 5.332zM26.524 7.458c0 1.06-.859 1.919-1.919 1.919s-1.919-.859-1.919-1.919.859-1.919 1.919-1.919 1.919.859 1.919 1.919z" />
        </symbol>
        <symbol id="konvert" viewBox="0 0 43 32">
            <path
                d="M38.667 0H4C1.795 0 0 1.794 0 4v24c0 2.206 1.794 4 4 4h34.667c2.206 0 4-1.794 4-4V4c0-2.205-1.794-4-4-4zm0 2.667c.184 0 .36.038.52.107l-.009-.003-17.844 15.466L3.489 2.771c.151-.065.327-.103.511-.103h34.667zm0 26.666H4c-.736 0-1.333-.597-1.333-1.333V5.587L20.46 21.008c.232.202.538.325.872.325h.003c.334 0 .64-.123.874-.327l-.002.001L40 5.586v22.413c0 .736-.598 1.333-1.333 1.333z" />
        </symbol>
        <symbol id="linkedin" viewBox="0 0 32 32">
            <path
                d="M31.992 32v-.001H32V20.263c0-5.741-1.236-10.164-7.948-10.164-3.227 0-5.392 1.771-6.276 3.449h-.093v-2.913h-6.364v21.364h6.627V21.42c0-2.785.528-5.479 3.977-5.479 3.399 0 3.449 3.179 3.449 5.657v10.401h6.62zM.528 10.636h6.635V32H.528V10.636zM3.843 0C1.722 0 0 1.721 0 3.843s1.721 3.879 3.843 3.879c2.121 0 3.843-1.757 3.843-3.879C7.685 1.722 5.963 0 3.843 0z" />
        </symbol>
        <symbol id="icon-logo1" viewBox="0 0 29 32">
            <path d="M3.84 0l4.677 4.428h13.046v12.351l4.677 4.428V.001H3.84z" />
            <path
                d="M0 4.241v20.6h21.76v-8.188L8.655 4.247 0 4.242zm17.615 17.587H3.443V7.974h1.002V20.89h13.17v.938zM6.266 28.662l.523-1.078h.438l-.763 1.438v.837h-.397v-.837l-.764-1.438h.439l.524 1.078zm2.247.667h-.881l-.184.53h-.411l.859-2.275h.355l.861 2.275H8.7l-.186-.53zm-.77-.319h.659l-.33-.944-.33.944zm2.328.234v-.004c0-.106.032-.205.087-.287l-.001.002c.057-.089.17-.193.339-.314-.088-.111-.151-.206-.186-.284s-.052-.154-.052-.227c0-.178.054-.319.162-.422s.254-.156.438-.156c.166 0 .301.049.406.147.106.097.159.217.159.361v.004c0 .096-.027.185-.073.261l.001-.002c-.048.079-.127.158-.236.238l-.155.113.439.519c.064-.125.095-.264.095-.417h.33c0 .28-.066.51-.197.689l.334.395h-.441l-.128-.152c-.162.122-.356.183-.581.183s-.405-.059-.541-.178c-.134-.12-.202-.276-.202-.467zm.753.343c.128 0 .248-.043.359-.128l-.497-.586-.048.034c-.125.095-.188.203-.188.325 0 .105.034.191.102.256s.158.098.272.098zm-.209-1.466c0 .087.054.197.161.33l.173-.119.048-.039c.065-.057.097-.131.097-.22 0-.059-.022-.11-.067-.152-.045-.043-.102-.064-.17-.064-.074 0-.133.025-.177.075s-.066.113-.066.189zm4.133.997c-.023.243-.113.432-.269.569-.156.135-.364.203-.623.203-.181 0-.341-.043-.48-.128-.137-.086-.244-.209-.319-.367s-.114-.342-.117-.552v-.212c0-.215.038-.404.114-.567s.185-.29.327-.378c.143-.088.307-.133.494-.133.251 0 .453.068.606.205s.242.329.267.578h-.394c-.019-.164-.067-.281-.144-.353-.076-.073-.188-.109-.336-.109-.172 0-.304.063-.397.189-.092.125-.139.309-.141.552v.202c0 .246.044.433.131.563s.218.194.387.194c.155 0 .272-.035.35-.105s.128-.186.148-.348h.394zm2.17-.338c0 .223-.039.419-.116.588-.077.168-.188.297-.331.388-.143.09-.307.134-.494.134-.184 0-.349-.045-.494-.134-.144-.091-.255-.219-.334-.386-.078-.167-.118-.359-.119-.576v-.128c0-.222.039-.418.117-.588.079-.17.19-.299.333-.389.144-.091.308-.136.494-.136s.349.045.492.134c.144.088.255.217.333.384s.118.361.119.583v.127zm-.395-.118c0-.252-.048-.445-.144-.58-.095-.134-.23-.202-.405-.202-.171 0-.305.067-.402.202-.096.133-.145.322-.147.567v.131c0 .25.048.443.145.58s.233.205.406.205c.175 0 .309-.067.403-.2.095-.133.142-.328.142-.584v-.119z" />
        </symbol>
        <symbol id="icon-logo2" viewBox="0 0 25 32">
            <path
                d="M10.447 1.806h.084c.156 0 .324.016.49.03.807.058 1.552.175 2.274.348l-.095-.019V.403c-.652-.172-1.42-.299-2.207-.356l-.042-.002c-.288-.022-.595-.036-.909-.044h-.263C8.172.007 6.617.219 5.136.612l.128-.029c-1.816.46-3.411 1.128-4.875 1.995l.085-.046v17.475c1.312-.729 2.832-1.338 4.431-1.75l.135-.029c1.123-.3 2.434-.51 3.78-.586l.052-.002h.051c.191-.01.42-.017.65-.019h.006v-1.79c-1.78.024-3.493.264-5.129.695l.147-.033c-.602.157-1.185.325-1.731.513l-.623.211V3.592l.266-.128c1.89-.918 4.096-1.512 6.424-1.649l.047-.002c.008-.001.018-.001.028-.001s.02 0 .029.001h-.001c.248-.012.497-.019.741-.019h.28c.129.003.258.006.388.014z" />
            <path
                d="M14.837 3.651c-.409 0-.814-.014-1.205-.044-.467-.034-.947-.091-1.401-.167-.363-.062-.638-.119-.91-.184l.096.019V20.55c.995.257 2.137.404 3.314.404h.117-.006c1.607-.007 3.162-.218 4.643-.609l-.128.029c1.817-.461 3.412-1.129 4.877-1.995l-.085.047V1.263c-1.312.728-2.831 1.338-4.429 1.751l-.136.03c-1.423.381-3.057.602-4.743.609h-.004zm6.908.299l.623-.21v13.63l-.266.128c-.903.442-1.962.834-3.065 1.118l-.119.026c-1.221.329-2.624.521-4.07.527h-.004c-.411 0-.819-.017-1.214-.052l-.427-.038V5.062l.497.033c.361.024.735.034 1.141.034 1.841-.007 3.622-.248 5.32-.697l-.147.033c.777-.203 1.355-.38 1.924-.576l-.193.058zM1.684 25.977a.915.915 0 00-.311-.212l-.006-.002a.9.9 0 00-.343-.067c-.012 0-.023 0-.035.001h.002-.014c-.139 0-.272.028-.393.078l.007-.003a.9312.9312 0 00-.311.205.8986.8986 0 00-.199.307l-.002.006c-.045.111-.072.24-.072.375v.012-.001 2.335c-.006.165.026.328.092.479.055.12.135.226.234.313.093.079.203.135.321.166.114.032.231.048.349.049h.009c.134 0 .26-.03.374-.084l-.005.002a.99.99 0 00.311-.216c.084-.088.153-.192.201-.306l.002-.007a.9335.9335 0 00.075-.368v-.266h-.61v.222c0 .07-.013.137-.037.198l.001-.004a.3669.3669 0 01-.089.131.396.396 0 01-.125.067l-.003.001a.4275.4275 0 01-.127.022.3093.3093 0 01-.162-.025l.002.001a.319.319 0 01-.126-.1l-.001-.001a.5477.5477 0 01-.081-.289c0-.008 0-.017.001-.025v.001-2.2c0-.118.028-.23.077-.33l-.002.004a.321.321 0 01.127-.113l.002-.001c.039-.019.084-.03.132-.03.013 0 .026.001.039.002H.986h.012c.107 0 .201.051.26.131l.001.001c.063.082.101.187.101.301v.013-.001.202h.604v-.248c0-.143-.027-.28-.077-.406l.003.007a.9679.9679 0 00-.204-.329zm3.626-.027a1.083 1.083 0 00-.694-.257c-.131.001-.256.025-.372.068l.007-.002a.986.986 0 00-.323.192l.001-.001a.9667.9667 0 00-.234.321l-.002.006a1.074 1.074 0 00-.089.431v.022-.001 2.239c-.004.158.026.314.089.459.055.12.136.227.237.313a.939.939 0 00.322.197c.117.043.24.065.364.066.131 0 .256-.024.372-.068l-.007.002c.127-.047.237-.114.331-.198l-.001.001a.958.958 0 00.228-.307l.002-.006c.056-.127.089-.274.089-.43v-.03.002-2.26c0-.156-.033-.304-.092-.438l.003.007a1.027 1.027 0 00-.23-.327zm-.285 3.019c.001.01.001.022.001.034 0 .114-.047.216-.123.289a.4455.4455 0 01-.287.105c-.11 0-.21-.04-.288-.105l.001.001a.4001.4001 0 01-.123-.289c0-.012.001-.024.002-.036v.002-2.239c-.001-.01-.001-.022-.001-.034 0-.114.047-.216.123-.289a.4455.4455 0 01.287-.105c.11 0 .21.04.288.105l-.001-.001a.397.397 0 01.097.148c.016.042.026.091.026.141 0 .012-.001.024-.002.036v-.002 2.239zm5.047 1V25.73h-.587l-.771 2.244h-.011l-.777-2.244h-.581v4.239h.606V27.39h.011l.593 1.823h.302l.598-1.823h.011v2.579h.606zm3.441-3.942a.839.839 0 00-.337-.23l-.006-.002c-.124-.042-.267-.066-.416-.066h-.024.001-.9v4.239h.604v-1.656h.311c.015.001.032.001.05.001.18 0 .351-.043.501-.12l-.006.003a.8868.8868 0 00.329-.32l.002-.004c.067-.106.115-.23.138-.363l.001-.006c.021-.134.033-.288.033-.444v-.04.002c.001-.021.001-.045.001-.07 0-.19-.022-.375-.063-.552l.003.016a.906.906 0 00-.223-.39zm-.312 1.292a.5417.5417 0 01-.057.224l.001-.003a.3495.3495 0 01-.154.148l-.002.001a.6092.6092 0 01-.253.054c-.011 0-.022 0-.033-.001h.002-.276v-1.441h.311c.008 0 .018-.001.028-.001.089 0 .173.02.248.055l-.004-.002c.062.036.111.09.141.154l.001.002c.033.074.051.155.053.236v.282c0 .099.006.2 0 .291h-.006zm3.173-1.589h-.495l-.934 4.239h.604l.177-.911h.824l.177.911h.604l-.957-4.239zm-.557 2.751l.297-1.537h.011l.296 1.537h-.604zm4.46-.197h-.011l-.912-2.554h-.581v4.239h.604V27.42h.012l.923 2.549h.568V25.73h-.604v2.554zm3.691-2.554l-.486 1.685h-.012l-.486-1.685h-.64l.83 2.447v1.792h.604v-1.792l.83-2.447h-.64zM0 31.166h.291v.817h.198v-.817h.29v-.167H.001v.167zm2.447-.168l-.381.984h.21l.081-.224h.392l.084.224h.215l-.391-.984h-.21zm-.031.595l.134-.365.134.365h-.268zm2.45.027h.227v.127a.3778.3778 0 01-.233.083h-.014a.2466.2466 0 01-.194-.094.41.41 0 01-.074-.235c0-.008 0-.015.001-.023v.001c0-.219.095-.329.283-.329.006-.001.013-.001.021-.001.045 0 .086.014.12.038h-.001c.04.029.07.07.082.118v.001l.195-.038c-.042-.192-.181-.289-.417-.289h-.013a.492.492 0 00-.331.127.4818.4818 0 00-.111.17l-.001.003a.4794.4794 0 00-.031.169c0 .013 0 .025.001.038v-.002.023c0 .132.048.253.127.347l-.001-.001c.087.089.208.145.342.145.011 0 .022 0 .033-.001h-.001.016c.155 0 .296-.06.401-.157v-.388h-.427v.166zm2.471-.622h-.199v.984h.69v-.167h-.49v-.817zm2.089 0h-.199v.984h.199v-.984zm2.043.658l-.403-.657h-.193v.984h.185v-.643l.395.643h.198v-.984h-.182v.657zm1.846-.107h.49v-.167h-.49v-.216h.528v-.167h-.727v.984h.747v-.167h-.548v-.266zm4.477-.162h-.388v-.388h-.198v.984h.198v-.43h.388v.43h.198v-.984h-.198v.388zm1.857.162h.492v-.167h-.492v-.216h.529v-.167h-.727v.984h.746v-.167h-.548v-.266zm2.519 0c.171-.027.258-.117.258-.274a.23.23 0 00.002-.028c0-.078-.038-.148-.097-.191h-.001a.555.555 0 00-.25-.059c-.013 0-.027 0-.04.001h.002-.417v.984h.198v-.412h.055c.039 0 .075.008.108.023l-.002-.001c.029.018.053.042.07.071l.001.001.215.313h.237l-.12-.192a.7042.7042 0 00-.215-.235l-.002-.002zm-.199-.136h-.146v-.247h.156a.5154.5154 0 01.205.024l-.004-.001c.027.024.043.058.043.096 0 .043-.021.08-.052.104a.5387.5387 0 01-.165.025c-.013 0-.025 0-.038-.001h.002zm2.098.136h.49v-.167h-.49v-.216h.529v-.167h-.729v.984h.747v-.167h-.548v-.266z" />
        </symbol>
        <symbol id="icon-logo3" viewBox="0 0 31 32">
            <path
                d="M4.722 31.103c.012 0 .023.003.033.007h-.001a.106.106 0 01.027.018l.153.161c-.118.128-.262.231-.423.301l-.008.003c-.169.07-.366.11-.572.11-.014 0-.027 0-.041-.001h.002-.03c-.196 0-.383-.038-.554-.106l.01.004a1.2498 1.2498 0 01-.432-.288 1.289 1.289 0 01-.276-.436l-.003-.009c-.062-.164-.098-.354-.098-.552v-.038c0-.199.039-.389.109-.562l-.004.01c.071-.174.172-.322.297-.445.128-.123.281-.221.45-.287l.009-.003c.17-.065.367-.102.573-.102h.019-.001.035c.185 0 .362.034.525.097l-.01-.003c.152.063.291.15.412.257l-.128.171a.1568.1568 0 01-.032.031.084.084 0 01-.044.013h-.008a.116.116 0 01-.056-.018l-.069-.046-.096-.058a.9131.9131 0 00-.121-.054l-.007-.002a1.1073 1.1073 0 00-.166-.044l-.008-.001a1.1527 1.1527 0 00-.211-.018h-.018.001-.014c-.148 0-.289.028-.419.079l.008-.003a.9758.9758 0 00-.333.215.994.994 0 00-.214.336l-.002.007c-.05.13-.079.28-.079.436v.017-.001c-.002.156.024.312.078.46.047.126.119.242.212.341.088.093.196.165.318.212.114.046.246.073.384.073h.01-.001c.078.001.156-.004.234-.015a.8727.8727 0 00.358-.124l-.004.002c.054-.034.104-.072.151-.113a.1164.1164 0 01.073-.029zm4.422-.807v.018c0 .198-.038.386-.107.559l.004-.01c-.067.172-.165.319-.288.44-.126.123-.276.221-.444.286l-.009.003c-.173.065-.373.102-.582.102s-.409-.037-.594-.106l.012.004a1.3313 1.3313 0 01-.45-.29 1.3004 1.3004 0 01-.288-.436l-.003-.009c-.065-.169-.103-.364-.103-.568s.038-.399.107-.579l-.004.011c.07-.174.168-.322.291-.447.126-.119.275-.213.441-.276l.009-.003c.173-.066.373-.104.582-.104s.409.038.593.108l-.012-.004c.17.066.324.165.452.29.122.122.22.268.286.431l.003.009c.071.183.106.376.103.571zm-.402 0v-.025c0-.154-.027-.303-.076-.44l.003.009a.9539.9539 0 00-.205-.341l.001.001a.9136.9136 0 00-.317-.213l-.006-.002c-.126-.047-.271-.075-.423-.075s-.297.027-.431.078l.009-.003a.8974.8974 0 00-.323.215.9255.9255 0 00-.205.334l-.002.006c-.046.136-.073.293-.073.456s.027.32.076.466l-.003-.01c.043.126.114.242.207.341a.895.895 0 00.317.211l.006.002c.126.046.271.073.423.073s.297-.027.432-.076l-.009.003a.893.893 0 00.323-.213.983.983 0 00.203-.334l.002-.007c.046-.128.073-.275.073-.429v-.028.001zm3.419.478l.04.102c.015-.036.029-.069.044-.102.017-.04.034-.073.052-.105l-.002.005.978-1.694c.019-.029.036-.047.056-.053s.043-.009.067-.009h.014-.001.289v2.755h-.343v-2.112c-.001-.014-.001-.031-.001-.047s.001-.033.001-.05v.002l-.984 1.718a.1488.1488 0 01-.057.062h-.001a.1637.1637 0 01-.083.023h-.059c-.03 0-.058-.008-.082-.023h.001a.1545.1545 0 01-.057-.062v-.001l-1.013-1.729v2.212h-.331v-2.75h.303c.024 0 .047.003.069.01h-.002c.024.011.042.03.053.052v.001l.999 1.696c.018.028.035.06.048.094l.001.004zm3.681-.136v1.032h-.383v-2.752h.885c.159 0 .312.022.458.063l-.012-.003c.13.035.242.094.339.173l-.002-.001c.083.072.148.163.19.265l.002.005c.045.112.067.232.065.352v.012c0 .123-.026.24-.073.346l.002-.005a.7543.7543 0 01-.206.274l-.001.001a.9484.9484 0 01-.332.181l-.007.002c-.129.041-.277.064-.431.064h-.031l-.462-.007zm0-.296h.475c.102 0 .2-.015.292-.044l-.007.002a.6246.6246 0 00.215-.119l-.001.001c.056-.049.1-.11.129-.179l.001-.003a.5601.5601 0 00.046-.224v-.007c.001-.009.001-.019.001-.029 0-.07-.014-.137-.041-.198l.001.003a.5437.5437 0 00-.133-.188.7662.7662 0 00-.515-.148h-.463v1.134zm5.145 1.331h-.307a.139.139 0 01-.08-.026.1682.1682 0 01-.049-.063v-.001l-.26-.666h-1.307l-.27.666a.1623.1623 0 01-.047.062.1345.1345 0 01-.082.027h-.307l1.148-2.756h.398l1.164 2.756zm-1.895-1.023h1.08l-.456-1.122a1.845 1.845 0 01-.083-.245l-.003-.013-.044.144c-.015.049-.03.088-.046.126l.003-.009-.452 1.12zm3.549-1.719a.169.169 0 01.057.049l1.675 2.077v-2.139h.343v2.756h-.196a.1644.1644 0 01-.074-.017h.001a.2003.2003 0 01-.061-.051l-1.673-2.075c.001.014.001.031.001.047s0 .033-.002.05v-.002 2.048h-.343v-2.756h.208c.023 0 .045.005.065.013h-.001zm4.896 1.646v1.094h-.383v-1.094l-1.059-1.66h.351c.028 0 .054.009.075.024.02.017.038.038.051.061l.001.001.662 1.071c.02.033.043.075.065.118l.004.01c.019.04.034.078.048.117l.05-.119a.9836.9836 0 01.067-.13l-.002.004.653-1.078a.307.307 0 01.049-.058.1194.1194 0 01.076-.027h.352l-1.06 1.667zm-15.566-6.284c.167.02.335.036.505.051 2.583-1.101 4.768-2.902 6.282-5.18s2.29-4.929 2.231-7.624l-2.846-2.712c.579 2.869.308 5.836-.782 8.567s-2.956 5.12-5.389 6.898z" />
            <path
                d="M10.955 24.167l.077.015c2.6-1.772 4.583-4.247 5.691-7.104s1.292-5.965.526-8.922l-4.054-3.862c1.64 3.175 2.3 6.728 1.903 10.246s-1.833 6.857-4.143 9.628zm13.749-9.442c-.689 2.961-2.362 5.632-4.77 7.616-.665.554-1.406 1.067-2.191 1.511l-.075.039c1.961-.549 3.764-1.52 5.269-2.838s2.672-2.947 3.412-4.763l-1.644-1.565z" />
            <path
                d="M24.059 14.289l-2.341-2.23c-.045 2.543-.803 5.028-2.197 7.197s-3.372 3.943-5.729 5.137h.011c.554 0 1.1-.033 1.637-.096l-.065.006c2.203-.857 4.148-2.219 5.664-3.967s2.553-3.825 3.021-6.047zM11.294 2.664L8.501 0C6.004.919 3.857 2.535 2.34 4.636S.008 9.225 0 11.775c.009 2.818 1.005 5.552 2.829 7.77s4.372 3.793 7.242 4.476c2.561-2.973 4.061-6.647 4.281-10.488s-.851-7.648-3.058-10.869zm19.218 11.214c-.01-3.343-1.409-6.546-3.89-8.91s-5.843-3.696-9.352-3.706a13.678 13.678 0 00-4.741.841l17.099 16.291c.585-1.44.885-2.971.884-4.515z" />
        </symbol>
        <symbol id="icon-logo4" viewBox="0 0 60 32">
            <path
                d="M9.229 9.548h-.002c-1.684 0-3.048 1.33-3.048 2.971v.002c0 1.641 1.365 2.971 3.048 2.971h.002c1.684 0 3.048-1.33 3.048-2.971v-.002c0-1.641-1.365-2.971-3.048-2.971zm22.501-.949c-.005-2.279-.936-4.463-2.589-6.074S25.247.006 22.908.001c-2.339.004-4.581.911-6.235 2.523S14.087 6.32 14.083 8.6v12.566S31.728 19.251 31.73 8.602V8.6zM0 25.289c.004 1.586.652 3.105 1.803 4.226s2.709 1.753 4.336 1.758c1.627-.005 3.185-.636 4.336-1.757s1.799-2.64 1.803-4.225v-8.744S0 17.881 0 25.289zm6.139 1.567h-.002c-.331 0-.64-.099-.898-.268l.006.004c-.264-.172-.47-.417-.592-.703-.077-.177-.122-.383-.122-.599 0-.108.011-.214.033-.316l-.002.01c.067-.317.223-.591.44-.802.22-.213.5-.365.813-.427l.01-.002c.094-.019.203-.03.314-.03.222 0 .433.044.626.123l-.011-.004c.294.119.545.319.721.577s.271.561.271.87v.006c0 .215-.044.42-.124.606l.004-.01c-.085.199-.203.368-.348.51-.146.143-.319.258-.512.337l-.011.004c-.182.076-.394.12-.616.12h-.001v-.006zm12.532-.972h-1.256v1.297h-.654v-3.174h2.067v.53h-1.413v.82h1.256v.528zm3.144-.218c0 .312-.055.587-.166.822s-.269.417-.475.545c-.205.128-.44.192-.706.192-.263 0-.498-.063-.704-.19s-.366-.307-.48-.541c-.113-.235-.171-.506-.172-.811v-.157c0-.312.056-.587.168-.824.113-.238.273-.421.477-.547.206-.128.442-.192.706-.192s.499.064.704.192c.206.126.366.309.477.547.113.237.17.511.17.822v.142zm-.663-.144c0-.333-.06-.586-.179-.759s-.289-.259-.51-.259c-.219 0-.389.086-.508.257-.119.17-.18.42-.181.75v.155c0 .324.06.576.179.754s.291.268.515.268c.22 0 .388-.086.506-.257.118-.173.177-.424.179-.754v-.155zm2.784.826c0-.124-.044-.218-.131-.283-.087-.067-.244-.137-.471-.209-.227-.074-.406-.147-.539-.218-.36-.195-.541-.457-.541-.787 0-.172.048-.324.144-.458.097-.135.236-.241.416-.316.182-.076.385-.113.61-.113.227 0 .429.041.606.124.177.081.315.197.412.347.099.15.148.32.148.51h-.654c0-.145-.046-.258-.137-.338-.092-.081-.22-.122-.386-.122-.16 0-.284.034-.373.102-.089.067-.133.156-.133.266 0 .103.052.19.155.259.105.07.258.135.46.196.372.112.643.251.813.416s.255.372.255.619c0 .275-.104.491-.312.648-.208.156-.488.233-.839.233-.244 0-.467-.044-.667-.133-.201-.09-.354-.213-.46-.368-.105-.156-.157-.336-.157-.541h.656c0 .35.209.525.628.525.156 0 .277-.031.364-.094.087-.064.131-.153.131-.266zm3.491-1.812h-.972v2.645h-.654v-2.645h-.959v-.53h2.586v.53zm2.285 1.269h-1.256v.85h1.474v.525h-2.128v-3.174h2.124v.53h-1.469v.757h1.256v.512zm1.777.214h-.521v1.162h-.654v-3.174h1.18c.375 0 .664.084.868.251s.305.403.305.709c0 .217-.047.397-.142.543-.093.144-.235.259-.425.344l.687 1.297v.03h-.702l-.595-1.162zm-.522-.53h.528c.164 0 .291-.041.382-.124.09-.084.135-.2.135-.347 0-.15-.043-.267-.129-.353-.084-.086-.214-.129-.39-.129h-.525v.953zm3.964.574v1.118h-.654v-3.174h1.238c.238 0 .448.044.628.131.182.087.321.212.419.373.097.16.146.342.146.547 0 .311-.107.557-.321.737-.212.179-.507.268-.883.268h-.573zm0-.53h.584c.173 0 .305-.041.395-.122.092-.081.137-.198.137-.349 0-.156-.046-.281-.137-.377s-.218-.145-.379-.148h-.6v.996zm4.138.272h-1.256v.85h1.474v.525h-2.128v-3.174h2.124v.53h-1.469v.757h1.256v.512zm3.035-1.269h-.972v2.645h-.654v-2.645h-.959v-.53h2.586v.53zm2.285 1.269h-1.256v.85h1.474v.525h-2.128v-3.174h2.124v.53h-1.469v.757h1.256v.512zm1.777.214h-.521v1.162h-.654v-3.174h1.179c.375 0 .664.084.868.251s.305.403.305.709c0 .217-.047.397-.142.543-.093.144-.235.259-.425.344l.687 1.297v.03h-.702l-.595-1.162zm-.521-.53h.528c.164 0 .291-.041.382-.124.09-.084.135-.2.135-.347 0-.15-.043-.267-.129-.353-.084-.086-.214-.129-.39-.129h-.525v.953zm3.844.859c0-.124-.044-.218-.131-.283-.087-.067-.244-.137-.471-.209-.227-.074-.406-.147-.538-.218-.36-.195-.541-.457-.541-.787 0-.172.048-.324.144-.458.097-.135.236-.241.416-.316.182-.076.385-.113.61-.113.227 0 .429.041.606.124.177.081.315.197.412.347.099.15.148.32.148.51h-.654c0-.145-.046-.258-.137-.338-.092-.081-.22-.122-.386-.122-.16 0-.284.034-.373.102-.089.067-.133.156-.133.266 0 .103.052.19.155.259.105.07.258.135.46.196.372.112.643.251.813.416s.255.372.255.619c0 .275-.104.491-.312.648-.208.156-.488.233-.839.233-.244 0-.467-.044-.667-.133-.201-.09-.354-.213-.46-.368-.105-.156-.157-.336-.157-.541h.656c0 .35.209.525.628.525.156 0 .277-.031.364-.094.087-.064.131-.153.131-.266z" />
        </symbol>
        <symbol id="icon-logo5" viewBox="0 0 40 32">
            <path
                d="M3.055 26.742c.157.194.24.438.236.688.001.016.001.035.001.053 0 .153-.031.298-.088.43l.003-.007c-.066.155-.161.286-.28.392l-.001.001c-.262.2-.594.321-.954.321-.038 0-.075-.001-.112-.004h.005H0v-4.361h1.827c.031-.002.067-.003.103-.003.341 0 .657.11.913.296l-.004-.003c.118.099.211.224.273.366s.089.296.081.45c.001.014.001.029.001.045 0 .235-.08.452-.215.624l.002-.002a.9913.9913 0 01-.549.34l-.007.001c.247.045.471.177.63.373zm-2.187-.658h.781a.736.736 0 00.499-.146l-.002.001a.518.518 0 00.169-.383c0-.015-.001-.03-.002-.045v.002c.001-.011.001-.024.001-.037 0-.153-.064-.291-.167-.389a.7501.7501 0 00-.514-.146h.003-.768v1.144zm1.354 1.672c.114-.1.186-.246.186-.408 0-.012 0-.024-.001-.037v.002c.001-.009.001-.02.001-.031a.55.55 0 00-.189-.416l-.001-.001a.7993.7993 0 00-.48-.159c-.018 0-.035.001-.053.002h.002-.819v1.199h.83c.014.001.031.001.047.001a.817.817 0 00.479-.154l-.002.002zm4.568.861l-1.016-1.704h-.382v1.704h-.874v-4.361h1.655c.034-.003.073-.004.113-.004.396 0 .759.142 1.042.377l-.003-.002c.245.251.397.595.397.974 0 .313-.103.601-.276.834l.003-.004a1.344 1.344 0 01-.781.442l-.008.001 1.082 1.743h-.951zm-1.398-2.299h.715c.497 0 .745-.22.745-.66.001-.011.001-.024.001-.037 0-.176-.07-.336-.184-.453a.7664.7664 0 00-.495-.18.802.802 0 00-.07.003h.003-.723l.008 1.327zm6.176 1.421H9.826l-.308.878h-.917l1.6-4.312h.991l1.593 4.312h-.917l-.301-.878zm-.233-.66l-.637-1.841-.637 1.841h1.273zm6.215 1.538h-.868l-1.946-2.965v2.965h-.866v-4.361h.866l1.946 2.983v-2.983h.868v4.361zm4.952-1.044c-.182.33-.45.593-.775.764l-.01.005c-.335.174-.732.276-1.153.276-.024 0-.047 0-.07-.001h.003-1.545v-4.361h1.545c.02-.001.044-.001.068-.001.42 0 .816.099 1.167.276l-.015-.007c.335.172.603.433.78.751l.005.009c.171.333.272.727.272 1.144s-.1.811-.278 1.158l.007-.014zm-.993-.104c.239-.278.384-.642.384-1.04 0-.382-.136-.751-.384-1.041a1.496 1.496 0 00-.992-.374c-.033 0-.066.001-.098.003h.004-.603v2.823h.603a1.501 1.501 0 001.088-.372l-.002.001zM12.111 0s11.201 4.246 10.963 10.39v10.392S11.881 16.534 12.115 10.39L12.111 0zm20.943 18.349c2.005-1.402 4.428-2.345 7.049-2.627l.068-.006v-3.253c-2.943 1.139-5.44 3.204-7.117 5.886z" />
            <path
                d="M31.783 19.329c1.731-3.5 4.733-6.202 8.388-7.548V2.407S24.219 8.455 24.557 17.204v14.795s.711-.27 1.829-.778c0-.473 0-.95.051-1.43.33-4.062 2.253-7.826 5.347-10.464z" />
            <path
                d="M30.266 24.825c.093-1.118.291-2.149.586-3.138l-.028.108a14.3227 14.3227 0 00-3.335 8.085c-.023.281-.036.562-.042.852 1.299-.625 2.304-1.166 3.286-1.742l-.218.118c-.191-.909-.3-1.953-.3-3.022 0-.444.019-.884.056-1.318l-.004.057zm.634.053c-.031.359-.049.778-.049 1.2 0 .947.09 1.874.261 2.771l-.015-.092c4.358-2.618 9.255-6.664 9.067-11.553v-.426a14.276 14.276 0 00-8.292 3.89c-.501 1.234-.847 2.664-.968 4.157l-.003.052z" />
        </symbol>
        <symbol id="icon-logo6" viewBox="0 0 62 32">
            <path
                d="M31.124 14.854c-.291-.424-.43-.926-.397-1.431v-2.075c0-.636.132-1.119.395-1.45s.715-.495 1.356-.494c.602 0 1.029.141 1.282.422.276.359.41.798.379 1.241v.488h-1.077v-.494c.001-.019.001-.042.001-.065 0-.148-.012-.293-.034-.434l.002.016a.482.482 0 00-.153-.287.5758.5758 0 00-.345-.114c-.016 0-.031.001-.047.002h.002a.619.619 0 00-.41.118.563.563 0 00-.178.317c-.027.142-.043.305-.043.472v.043-.002 2.518a1.425 1.425 0 00-.003.096c0 .223.052.433.145.619l-.004-.008c.055.075.127.134.212.17l.003.001c.063.028.136.044.213.044.023 0 .045-.001.067-.004h-.003a.545.545 0 00.381-.114.5224.5224 0 00.16-.303v-.003c.022-.136.034-.293.034-.452 0-.018 0-.037-.001-.055v.003-.511h1.077v.466c.03.462-.101.92-.372 1.304-.247.308-.669.462-1.289.462s-1.088-.165-1.353-.507zm4.483.022c-.272-.323-.408-.794-.408-1.416v-2.182c0-.616.136-1.083.408-1.399s.727-.474 1.364-.473c.633 0 1.086.158 1.358.473.272.317.41.783.41 1.399v2.182c0 .616-.138 1.089-.415 1.414s-.727.488-1.353.488-1.09-.165-1.364-.485zm1.867-.524c.083-.167.131-.365.131-.573 0-.026-.001-.051-.002-.076v.004-2.672a1.273 1.273 0 00-.131-.64l.003.007a.5247.5247 0 00-.217-.173l-.003-.001a.5282.5282 0 00-.21-.042c-.026 0-.052.002-.077.005h.003a.5462.5462 0 00-.289.039l.004-.001a.522.522 0 00-.22.172l-.001.001c-.083.163-.132.355-.132.559 0 .026.001.052.002.078v-.004 2.685c-.001.023-.002.05-.002.077 0 .207.049.403.135.576l-.003-.008c.062.067.138.121.223.158l.004.002c.087.037.181.057.277.057s.19-.019.277-.057a.6758.6758 0 00.227-.16v-.013zm2.561-4.884h1.159l.872 4.027.892-4.027h1.128l.114 5.812h-.834l-.089-4.04-.861 4.04h-.669l-.892-4.054-.082 4.054h-.843l.105-5.812zm5.465 0h1.806c1.04 0 1.561.55 1.561 1.65 0 1.054-.548 1.58-1.643 1.579h-.615v2.583h-1.115l.007-5.812zm1.542 2.484c.11.013.222.004.328-.028.11-.033.206-.087.286-.156l-.001.001c.128-.196.184-.427.16-.656.001-.019.001-.042.001-.065 0-.164-.02-.323-.057-.476l.003.014a.4211.4211 0 00-.083-.16l.001.001a.4797.4797 0 00-.138-.116l-.002-.001c-.129-.06-.279-.095-.438-.095-.021 0-.041.001-.062.002h.003-.432v1.737h.432zm3.432-2.484h1.197l1.228 5.812H51.86l-.243-1.34h-1.068l-.25 1.34h-1.055l1.228-5.812zm1.023 3.799l-.417-2.44-.417 2.44h.834zm2.395-3.799h.78l1.494 3.316V9.468h.925v5.812h-.742l-1.503-3.461v3.461h-.957l.002-5.812zm5.366 3.596l-1.242-3.588h1.046l.758 2.305.711-2.305h1.023l-1.226 3.588v2.216h-1.07v-2.216zm-26.413 4.758v.304h-.91v2.362h-.381v-2.362h-.914v-.304h2.205zm2.852 2.666h-.302c-.028 0-.054-.01-.075-.026a.1363.1363 0 01-.049-.06v-.001l-.263-.633h-1.262l-.263.633a.1814.1814 0 01-.04.072.126.126 0 01-.076.025h-.3l1.115-2.666h.388l1.128 2.655zm-1.847-.99h1.052l-.446-1.085a1.9322 1.9322 0 01-.079-.237l-.003-.014c-.016.051-.029.099-.042.141l-.04.112-.441 1.083zm3.768.728c.07.003.14.003.21 0 .067-.007.128-.018.186-.033l-.008.002c.064-.015.117-.032.169-.052l-.009.003c.049-.019.098-.042.149-.065v-.599h-.451a.0862.0862 0 01-.056-.021.062.062 0 01-.017-.022.0644.0644 0 01-.005-.024v-.207h.865v1.022a1.558 1.558 0 01-.213.122l-.01.004c-.069.033-.151.064-.237.088l-.011.003c-.079.023-.173.042-.27.054l-.009.001c-.097.011-.209.017-.323.017h-.015c-.197 0-.386-.036-.56-.103l.011.004a1.3704 1.3704 0 01-.447-.279l.001.001c-.12-.117-.217-.258-.284-.414l-.003-.008c-.065-.158-.103-.342-.103-.535V19.149c0-.194.037-.38.104-.55l-.004.01c.069-.165.166-.306.287-.422.125-.117.273-.211.437-.273l.009-.003c.172-.063.37-.099.576-.099h.022-.001c.104 0 .207.008.31.023.091.014.179.037.265.068s.159.066.228.109l-.005-.003c.068.042.133.088.194.139l-.107.165a.0957.0957 0 01-.036.036.0975.0975 0 01-.051.014.1474.1474 0 01-.07-.021h.001c-.044-.023-.08-.044-.114-.066l.005.003a.9053.9053 0 00-.143-.07l-.007-.002a1.209 1.209 0 00-.197-.058l-.008-.001a1.5067 1.5067 0 00-.269-.023h-.014.001-.013c-.15 0-.293.027-.425.077l.008-.003a.9403.9403 0 00-.328.211.9426.9426 0 00-.207.331c-.047.132-.075.285-.075.444s.027.312.078.454l-.003-.009a.951.951 0 00.223.335c.091.091.202.163.325.211.142.046.292.064.441.053zm3.554-.042h1.217v.304h-1.59v-2.666h.381l-.009 2.362zm2.484.304h-.381v-2.666h.381v2.666zm1.418-2.654c.023.012.042.029.058.048l1.63 2.009a.68.68 0 01-.002-.047c0-.016.001-.033.002-.05v.002-1.986h.332v2.676h-.205a.1715.1715 0 01-.071-.016h.001a.2422.2422 0 01-.06-.05l-1.628-2.007v2.073h-.319V17.82h.198c.023 0 .044.005.063.013h-.001zm4.827-.012v.293H48.55v.88h1.095v.283H48.55v.91h1.351v.293h-1.743v-2.659h1.743zM9.95 1.359l16.929 4.55v15.946L9.95 17.307V1.359zM8.864 0v18.082l19.098 5.135V5.137L8.864 0z" />
            <path d="M19.1 31.611L0 26.472V8.392l19.1 5.137v18.082z" />
            <path
                d="M9.181 1.155l16.708 4.493-7.105 6.729-16.71-4.496 7.108-6.726zM8.864 0L0 8.392l19.1 5.137 8.862-8.392L8.864 0zm11.311 30.593l7.788-7.374-7.788-2.096v9.47z" />
        </symbol>
        <symbol id="phone" viewBox="0 0 20 32">
            <path
                d="M17 0H3C1.346 0 0 1.346 0 3v26c0 1.654 1.346 3 3 3h14c1.654 0 3-1.346 3-3V3c0-1.654-1.346-3-3-3zM3 2h14c.552 0 1 .448 1 1v21H2V3c0-.552.448-1 1-1zm14 28H3c-.552 0-1-.448-1-1v-3h16v3c0 .552-.448 1-1 1z" />
        </symbol>
        <symbol id="twitter" viewBox="0 0 32 32">
            <path
                d="M32 6.078c-1.19.522-2.458.868-3.78 1.036 1.36-.812 2.398-2.088 2.886-3.626-1.268.756-2.668 1.29-4.16 1.588C25.742 3.794 24.026 3 22.154 3c-3.632 0-6.556 2.948-6.556 6.562 0 .52.044 1.02.152 1.496-5.454-.266-10.28-2.88-13.522-6.862-.566.982-.898 2.106-.898 3.316 0 2.272 1.17 4.286 2.914 5.452-1.054-.02-2.088-.326-2.964-.808v.072c0 3.188 2.274 5.836 5.256 6.446-.534.146-1.116.216-1.72.216-.42 0-.844-.024-1.242-.112.85 2.598 3.262 4.508 6.13 4.57-2.214 1.744-5.044 2.798-8.12 2.798h-.015.001c-.538 0-1.054-.024-1.57-.09C2.906 27.93 6.35 29 10.064 29c12.072 0 18.672-10 18.672-18.668 0-.29-.01-.57-.024-.848C30.014 8.56 31.108 7.406 32 6.078z" />
        </symbol>
        <symbol id="iconsend" viewBox="0 0 24 24">
            <path
                d="M24 0L0 13.5l7.67 2.8407L19.5 5.25l-8.9983 12.1396.0073.0027-.009-.0027v6.6105l4.3013-5.0181 5.4488 2.0181L24 0z" />
        </symbol>
        <symbol id="email" viewBox="0 0 18 18">
            <path
                d="M15 3H3c-.825 0-1.4925.675-1.4925 1.5l-.0075 9c0 .825.675 1.5 1.5 1.5h12c.825 0 1.5-.675 1.5-1.5v-9c0-.825-.675-1.5-1.5-1.5zm-.3 3.1875l-5.3025 3.315c-.24.15-.555.15-.795 0L3.3 6.1875c-.1875-.12-.3-.3225-.3-.54 0-.5025.5475-.8025.975-.54L9 8.25l5.025-3.1425c.4275-.2625.975.0375.975.54 0 .2175-.1125.42-.3.54z" />
        </symbol>
        <symbol id="person" viewBox="0 0 18 18">
            <path
                d="M9 9c1.6575 0 3-1.3425 3-3s-1.3425-3-3-3-3 1.3425-3 3 1.3425 3 3 3zm0 1.5c-2.0025 0-6 1.005-6 3v.75c0 .4125.3375.75.75.75h10.5c.4125 0 .75-.3375.75-.75v-.75c0-1.995-3.9975-3-6-3z" />
        </symbol>
        <symbol id="phoneicon" viewBox="0 0 18 18">
            <path
                d="M13.996 11.1226l-1.8381-.2099a1.4405 1.4405 0 00-1.1869.4125l-1.3316 1.3316c-2.048-1.0421-3.7269-2.7138-4.769-4.7691l1.3388-1.3388a1.4406 1.4406 0 00.4125-1.1868L6.412 3.5383a1.4484 1.4484 0 00-1.4402-1.281h-1.252c-.8177 0-1.498.6803-1.4473 1.498.3835 6.1803 5.3263 11.1158 11.4993 11.4994.8177.0506 1.498-.6296 1.498-1.4474v-1.2519c.0072-.731-.5428-1.3461-1.2737-1.4329z" />
        </symbol>
        <symbol id="iconcheck" viewBox="0 0 16 15">
            <path
                d="M3.957 7.7517l-.0687-.0657-.069.0654-.888.8412-.0764.0723.076.0726 3.4958 3.3349.069.0658.069-.0658 7.5043-7.1589.0759-.0723-.0759-.0724-.8817-.8412-.069-.0658-.069.0658-6.5535 6.2459L3.957 7.7517z"
                fill="#fff" stroke="#fff" stroke-width=".2" />
        </symbol>
        <symbol id="iconcheck2" viewBox="0 0 16 15">
            <path
                d="M14.2222 1.6667v11.6666H1.7778V1.6667h12.4444zm0-1.6667H1.7778C.8 0 0 .75 0 1.6667v11.6666C0 14.25.8 15 1.7778 15h12.4444C15.2 15 16 14.25 16 13.3333V1.6667C16 .75 15.2 0 14.2222 0z"
                fill="#212121" />
        </symbol>
    </defs>
</svg>